<?xml version="1.0" standalone="no"?>

<svg version="1.0" xmlns="http://www.w3.org/2000/svg"
 width="113.000000pt" height="43.000000pt" viewBox="0 0 113.000000 43.000000"
 preserveAspectRatio="xMidYMid meet">

<g transform="translate(0.000000,43.000000) scale(0.100000,-0.100000)"
fill="#ffff" stroke="none">
<path d="M125 278 c-4 -18 -5 -58 -3 -88 2 -43 7 -56 21 -58 14 -3 17 4 17 32
0 20 3 36 8 36 4 0 20 -16 35 -35 15 -19 34 -35 42 -35 29 0 26 23 -6 56 l-33
34 27 28 c29 30 36 62 13 62 -8 0 -27 -15 -44 -34 -33 -38 -42 -37 -42 6 0 40
-27 37 -35 -4z"/>
<path d="M462 228 l3 -83 30 -3 c24 -3 28 -1 18 9 -7 7 -13 30 -13 51 0 31 4
38 20 38 11 0 20 7 20 15 0 8 -8 15 -19 15 -10 0 -21 9 -24 20 -3 11 -12 20
-21 20 -15 0 -16 -12 -14 -82z"/>
<path d="M575 299 c-4 -5 -4 -42 0 -80 6 -54 11 -72 27 -80 21 -12 48 -6 48
11 0 5 -9 10 -21 10 -17 0 -20 5 -17 38 2 30 7 38 26 40 31 5 29 32 -3 32 -18
0 -25 5 -25 20 0 21 -24 27 -35 9z"/>
<path d="M317 260 c-58 -45 -23 -134 50 -128 50 4 55 26 7 30 -41 3 -61 28
-22 28 46 0 68 12 68 35 0 46 -62 67 -103 35z m63 -25 c10 -12 10 -15 -3 -15
-8 0 -22 -3 -31 -6 -10 -4 -16 -1 -16 9 0 14 12 24 31 26 4 1 12 -6 19 -14z"/>
<path d="M722 270 c-67 -28 -40 -140 34 -140 37 0 74 37 74 75 0 49 -59 85
-108 65z m68 -60 c0 -33 -12 -50 -35 -50 -35 0 -47 46 -19 74 19 20 54 5 54
-24z"/>
<path d="M882 264 c-19 -13 -22 -24 -22 -84 0 -37 3 -75 6 -84 10 -25 34 -19
34 9 0 22 4 25 34 25 41 0 66 28 66 75 0 36 -8 48 -37 64 -30 15 -54 14 -81
-5z m76 -67 c-2 -27 -8 -33 -30 -35 -26 -3 -28 -1 -28 37 0 42 13 54 43 39 13
-7 17 -18 15 -41z"/>
</g>
</svg>
