<?xml version="1.0" encoding="UTF-8"?>
<svg id="Layer_1" data-name="Layer 1" xmlns="http://www.w3.org/2000/svg" viewBox="0 0 1040.52 798.97">
  <defs>
    <style>
      .cls-1, .cls-2, .cls-3 {
        fill: #fff;
      }

      .cls-2 {
        font-family: Montserrat-SemiBold, Montserrat;
        font-size: 277.54px;
      }

      .cls-2, .cls-3 {
        isolation: isolate;
      }

      .cls-4 {
        letter-spacing: .01em;
      }

      .cls-3 {
        font-family: Montserrat-Regular, Montserrat;
        font-size: 117.96px;
      }

      .cls-5 {
        fill: #d31772;
      }

      .cls-6 {
        letter-spacing: -.02em;
      }

      .cls-7 {
        letter-spacing: 0em;
      }

      .cls-8 {
        letter-spacing: .01em;
      }
    </style>
  </defs>
  <rect class="cls-1" x="39.14" y="213.58" width="272.23" height="315.53" rx="6.19" ry="6.19"/>
  <text class="cls-2" transform="translate(306.69 529.12)"><tspan x="0" y="0">KIDS</tspan></text>
  <g id="Group_409" data-name="Group 409">
    <g id="Group_85" data-name="Group 85">
      <path id="Path_299" data-name="Path 299" class="cls-5" d="M185.19,221.74l8.01,18.52c.18,0,.58,0,.7-.16,3.31-4.45,4.53-4.67,7.82,.12,2.69,4.02,4.92,8.32,6.66,12.82,1.39,3.52,0,6.43-4.88,7.23l.92,1.26,4.78,.3c2.32,3.84,4.79,7.51,6.83,11.4,3.81,7.3,7.3,14.84,11.09,22.07,1.95,2.8,3.7,5.74,5.24,8.79,.58,2.93,.78,5.92,.58,8.9,.02,1.8,.21,3.59,.55,5.36,1.66,6.77,1.69,6.66-4.88,8.9-3.89,1.35-7.6,3.26-11.56,4.45-1.04,.3-3.12-1.1-3.93-2.26-2.84-4.01-5.43-8.18-7.78-12.5-3.13-4.26-3.38-9.99-.64-14.51,2.18-3.22,1.34-7.61-1.89-9.79-.34-.23-.7-.43-1.08-.6-5.58-2.77-9.56-7.98-10.74-14.1-.83-3.47-1.68-6.94-2.45-10.39-.59-2.7-1.28-3.09-4.72-1.91-2.02-5.02-4.05-10.06-6.1-15.11-.36-.88-.59-2.17-1.26-2.49-2.85-1.37-2.57-3.9-2.97-6.32-.21-1.48-.98-2.97-1.28-4.45-.21-1.21-.24-2.44-.09-3.65,.22-1.9,2.83-3.49,.73-5.77,.16-.64,.54-1.21,1.08-1.59,3.77-1.75,6.23-6.38,11.26-4.51Z"/>
      <path id="Path_300" data-name="Path 300" class="cls-5" d="M163.66,298.62c-3.57,1.68-7.26,3.07-11.06,4.16-2.97,.62-2.78,1.9-2.48,4.36l15.48-6.53,.45,.76c-.27,.39-.52,.79-.8,1.16-2.72,3.58-2.26,5.09,1.94,6.5,1.35,.25,2.63,.79,3.75,1.59,.94,1.4,1.65,2.94,2.12,4.56-.61,0-.1,0,.37,0,.58,.18,1.15,.41,1.71,.67l-3.12,4.32,4.73,4.85-.67,1.48,3.13-.65c.22,.93,.58,1.83,1.07,2.66,.77,.73,1.64,1.35,2.58,1.85l-2.97,1.78-2.24-2.97q-5.76,6.37-6.05,8.16c-.79,.93-1.5,1.92-2.14,2.97-.41,.98-.71,2-.92,3.04-.76-.62-1.48-1.22-2.27-1.87-2.3-2.06-4.63-4.1-6.86-6.25-.79-.87-1.49-1.83-2.08-2.85-1.48-2.36-3.19-4.67-4.57-7.14-.41-1.2-.72-2.42-.93-3.67-.24-1.12-.78-2.14-1.57-2.97-2.73-2-2.15-4.45-1.48-7.12,.2-1.27,.31-2.56,.31-3.84-1.22,.33-2.43,.68-3.65,.98-.36,.08-.73,.13-1.1,.15l.83-4.56-3.83-.48,1.48-3.07h-6.97l2.02-3.38h-2.58l4.45-13.68-3.49-4.08-9.78,3.67c-1.83-.74-3.61-1.6-5.33-2.57-1.13-.71-2.01-1.74-2.54-2.97-1.13-4.59-4.16-8.47-8.33-10.7-.13,0-.3-.09-.37-.19-5.75-5.55-8.75-13.36-8.19-21.32,.22-1.51,.91-2.92,1.97-4.02,1.15-.61,2.53-.57,3.64,.1,2.02,2.29,2.97,2.75,4.73-.43,3.68-6.38,7-6.25,12.5-1.48,6.41,7.12,11.78,15.11,15.94,23.74,1.1,1.68-.42,5.06-1.48,7.6,.13,.24,.27,.68,.39,.68,6.16-.18,8.74,4.14,11.56,8.62,2.54,4.04,5.94,7.54,8.73,11.4,1.29,2.03,2.33,4.2,3.96,6.99Z"/>
      <path id="Path_301" data-name="Path 301" class="cls-5" d="M125.51,472.27c1.48-.9,3.53-2.15,5.61-3.21,.34-.16,1.59,.5,1.59,.82,.08,.89-.17,1.78-.7,2.51-2.3,2.26-1.48,3.84,.86,4.16,1.72,0,3.75-.56,5.1,.15,1.69,1.13,3.1,2.62,4.14,4.36,2.11,2.39,5.17,3.72,8.35,3.64,.46,4.45,2.46,9.04-3.09,12.27l-.67-3.34c-2.66,1.94-5.09,4.14-8.34,1.41-.31-.27-2.49,1.71-3.83,2.61-3.5,2.37-6.89,4.94-10.57,6.99-1.63,.52-3.37,.61-5.05,.27-1.19-.13-2.35-.48-3.41-1.04-3.04-1.2-6.05-2.49-9.13-3.61-3.32-1.2-7.11-1.48-8.9-5.3-.37-.79-1.91-.96-2.86-1.48-5.79-3.47-11.55-7.03-17.36-10.39-1.16-.64-2.42-1.08-3.72-1.31-4.45-.86-5.71-4.26-2.97-7.88,6.22-10.4,19.01-14.83,30.33-10.52,4.54,1.97,8.88,4.38,12.95,7.18,1.21,.54,2.5,.86,3.81,.96,2.41,.21,4.87,.41,7.84,.74Z"/>
      <g id="Group_84" data-name="Group 84">
        <path id="Path_302" data-name="Path 302" class="cls-5" d="M154.86,384.54c-.3,1.39-.62,2.78-.89,4.17-1.31,3.42-1.93,7.06-1.83,10.71,1.32,7.71,6,14.43,12.76,18.36l13.36-4.33,115.35-37.47-4.97-8.09,2.97-5.19-6.83,2.54-.55-1.25,7.88-3.4c-.61-7.75-4.89-14.74-11.52-18.82,5.94-3.06,5.94-3.43,4.87-9.63-1.73-5.07-1.19-10.64,1.48-15.28,.87-1.44,1.24-3.13,1.05-4.81-.3-3.68,2.12-5.73,4.14-8.12,.97-.94,1.72-2.09,2.2-3.35,1.28-5.53,2.46-11.09,3.31-16.69,.21-1.37-1.16-2.97-1.48-4.45-.28-1.13-.53-3.26-.16-3.43,5.48-2.29,3.95-7.3,4.63-11.41,.11-.99,.11-1.98,0-2.97-.27-4.82-1.48-5.51-6.04-3.52-1.22-2.02-1.97-6.53-4.93-1.16,0,.12-.18,.36-.21,.34-5.39-1.9-6.69,3.75-10.08,5.55-3.9,2.36-5.15,7.45-2.79,11.35,.15,.24,.3,.47,.47,.7,1.84,1.89,2.15,4.78,.76,7.02-1.14,2.36-1.43,5.04-.82,7.58,1.26,2.8,.99,6.04-.71,8.59-.42,.97-.61,2.03-.58,3.09l-5.94,2.45c4.29,6.01,4.27,8.74,.24,18.79,6.62,3.29,2.8,11.68,7.88,16.07l-3.74,3.49,2.12,2.46-.42,1.04-4.24-1.31c-4.07,7.14-4.6,7.42-12.57,4.45-2.97-1.11-6.8-.61-8.64-4.3-.22-.45-2.15,.21-2.97-.22-6.22-3.06-12.66-.52-18.97-.82-.5,0-.98,1.2-1.62,1.62-.49,.28-1.03,.47-1.59,.56-.13-2.21,.37-4.6-.55-6.13s-3.35-2.54-5.12-3.75l-1.02,1.23,4.94,6.57c-.6,.51-1.25,.96-1.94,1.35-1.02,.26-2.01,.61-2.97,1.05-4.13,3.07-8.09,6.35-12.27,9.33-1.05,.44-2.24,.44-3.29,0-4.3-.81-8.71,.57-11.78,3.68-.85,.93-1.85,1.7-2.97,2.29-5.74,3.34-11.6,6.46-17.24,9.96-5.64,3.5-10.88,7.3-15.94,10.73-1.71-.75-3.37-1.59-4.97-2.54-.78-.56-1.32-1.4-1.48-2.34-.3-2.72-.19-5.48-.52-8.18-.4-1.46-.89-2.89-1.48-4.29-.62-2.8-1.53-5.53-2.72-8.15l.15,3.37-.99,.68c-1.71-7.23-5.08-12.61-12.79-13.18-2.21-2.97-4.45-6.03-6.78-9.05-1.1-1.48-1.38-3.74-4.45-2.83-.83,.25-2.42-2.79-3.95-3.96s-3.84-1.83-5.42-3.15c-2.13-1.99-4.15-4.1-6.04-6.32l-2.24,2c.19-2.83-.12-5.68-.89-8.41-1.64-2.4-3.69-4.5-6.07-6.17-3.22-2.88-6.51-5.67-9.82-8.44-.79-.57-1.63-1.07-2.51-1.48-3.35,5.56-9.08,5.4-14.84-.33-8.5,7.84-6.29,12.87-1.14,20.63,5.44,6.07,12.09,10.95,19.51,14.32,1.48,.96,4.33-.19,6.77-.39,3.59,2.82,4.24,10.49,12.44,8.61l-.34,2.02c3.59,.38,6.2,3.59,5.83,7.19-.04,.4-.12,.8-.23,1.18,5.37,5.7,13.36,8.9,14.5,17.93,.43,3.38,4.13,4.59,6.97,1.8l-.74,5.13,5.58,2.42h5.83l-1.78,4.13h10.27c1.23,.13,2.67,.42,4.11,.59Z"/>
        <path id="Path_303" data-name="Path 303" class="cls-5" d="M237.46,510.92l9.36-29.03,22.57-69.55-69.55,22.57-20.92,6.75c-.09,3.71,.1,7.42,.56,11.1l1.37,3.86-4.9,5.94,.48,.61,3.31-1.01c-2.15,3.61,.27,3.09,1.96,3.25,1.34,2.2-6.59,9.51-11.87,14.02-1.65,1.02-3.14,2.27-4.45,3.7-.7,.76-1.71,2.43-1.48,2.66,2.97,3.16-.49,5.37-.73,8.78l-5.03-4.85,.43-.62-2.69-4.63c-2.17-.56-3.89-.36-2.61,3.84,.53,2.82,.74,5.68,.62,8.55,4.91,2.37,9.29,5.71,12.87,9.82,3.47,3.53,8.17,5.57,13.12,5.68,7.58,.66,14.98,2.67,21.84,5.94,6.48,2.53,13.11,4.66,19.86,6.38,1.66,.46,3.77-.71,5.68-1.14,.37-.1,.74-.23,1.1-.37l1.63,3.28,11.95-4.04,4.82,1.13,2.48-.89-11.77-11.72Z"/>
        <path id="Path_304" data-name="Path 304" class="cls-5" d="M311.39,459.9v-2.97c-.26,.21-.52,.41-.8,.59l.77-22.73h0v-18.12l-6.86-16,2.46-1.01-1.6-.47c-.49-1.63-1.16-3.24-1.62-4.87l-35.45,109.13-4.62,14.28,1.71-.49c1.68-1.31,3.55-2.35,5.55-3.07,5.46-1.01,9.79-5.43,16.32-3.78,5.24,2.14,11.26,.77,15.06-3.43,.52-.64,1.07-1.25,1.63-1.84h-1.19l5-20.78,2.85,5.55c0-4.36,.15-8.73,.48-13.09,0-.85,.13-1.69,.22-2.55,.09-.86,.13-1.48,.22-2.26s.18-1.48,.27-2.26c.31-2.52,.67-5.05,1.13-7.57-.95-.34-1.58-1.26-1.54-2.27Z"/>
      </g>
    </g>
  </g>
  <text class="cls-3" transform="translate(325.41 296.56)"><tspan class="cls-4" x="0" y="0">ASSI</tspan><tspan class="cls-7" x="272.36" y="0">S</tspan><tspan class="cls-6" x="345.49" y="0">T</tspan><tspan class="cls-8" x="410.84" y="0">ANT</tspan></text>
</svg>