 <svg  version="1.0" xmlns="http://www.w3.org/2000/svg"  width="260.000000pt" height="97.000000pt" viewBox="0 0 260.000000 97.000000"  preserveAspectRatio="xMidYMid meet">  <g transform="translate(0.000000,97.000000) scale(0.100000,-0.100000)" fill="#ffffff" stroke="none"> <path d="M0 485 l0 -485 1300 0 1300 0 0 485 0 485 -1300 0 -1300 0 0 -485z m438 203 c11 -13 24 -35 27 -50 l7 -28 45 50 c53 59 84 64 132 24 25 -21 31 -33 31 -65 0 -35 -7 -48 -51 -94 l-51 -54 41 -43 40 -43 1 53 c1 185 212 269 338 135 l42 -46 0 71 c0 62 3 73 22 86 36 26 85 20 119 -13 16 -16 29 -39 29 -50 0 -16 6 -21 26 -21 14 0 34 -5 45 -10 17 -10 19 -7 19 30 0 50 27 80 73 80 48 0 81 -21 93 -60 10 -29 17 -36 43 -38 20 -2 37 -12 47 -28 l16 -24 39 34 c45 42 104 60 166 51 73 -10 114 -38 160 -111 11 -18 12 -17 12 7 2 93 173 139 290 79 106 -54 134 -216 53 -312 -31 -37 -94 -67 -139 -68 -30 0 -33 -3 -33 -32 0 -39 -7 -51 -37 -67 -37 -19 -73 -13 -104 18 -28 28 -29 34 -29 115 0 51 -4 86 -10 86 -5 0 -10 -4 -10 -9 0 -20 -56 -75 -95 -92 -79 -36 -183 -15 -236 48 l-26 31 -12 -33 c-29 -82 -173 -86 -232 -6 l-22 30 -16 -32 c-22 -44 -55 -59 -118 -53 -89 8 -133 56 -133 146 l0 54 -22 -22 c-17 -17 -20 -24 -10 -34 14 -14 16 -72 2 -97 -13 -26 -82 -51 -138 -51 -51 0 -124 29 -159 62 -19 18 -23 19 -23 5 0 -26 -49 -57 -91 -57 -31 0 -45 8 -83 46 -44 44 -46 45 -46 20 0 -65 -104 -92 -155 -41 -25 24 -25 26 -25 216 0 224 2 229 80 229 35 0 52 -5 68 -22z"/> <path d="M320 673 c-1 -5 -1 -91 0 -193 1 -209 2 -213 75 -208 l40 3 -1 73 c-1 39 1 72 5 72 3 0 20 -19 36 -41 44 -60 102 -109 128 -109 30 0 67 27 67 48 0 9 -30 47 -67 84 l-67 67 56 58 c69 73 78 96 47 129 -40 43 -67 32 -139 -57 l-65 -80 -3 73 c-2 42 -8 76 -15 80 -16 10 -97 10 -97 1z"/> <path d="M1069 663 c-5 -66 5 -339 14 -353 16 -26 51 -40 103 -40 64 0 84 13 84 55 0 33 -1 34 -42 37 l-43 3 -3 63 -3 62 45 0 c36 0 46 4 51 20 13 41 -3 60 -51 60 -43 0 -44 0 -44 34 0 19 -7 42 -16 50 -16 16 -93 23 -95 9z"/> <path d="M1334 656 c-3 -8 -4 -87 -2 -176 l3 -162 28 -24 c23 -19 39 -24 86 -24 68 0 98 22 87 64 -5 21 -13 25 -49 28 l-42 3 -3 62 -3 62 48 3 c48 3 48 3 51 41 l3 37 -50 0 -51 0 0 40 c0 29 -5 42 -19 50 -28 15 -81 12 -87 -4z"/> <path d="M805 603 c-31 -8 -83 -51 -100 -83 -22 -43 -19 -125 6 -170 31 -55 82 -80 162 -80 78 0 115 14 124 48 10 40 -16 56 -65 42 -46 -14 -104 -7 -122 16 -7 8 -11 16 -9 18 2 1 44 8 93 14 48 6 94 17 102 23 8 6 14 26 14 43 0 87 -105 153 -205 129z m96 -99 c16 -19 13 -20 -53 -28 -64 -7 -72 1 -33 32 27 21 67 19 86 -4z"/> <path d="M1687 596 c-80 -29 -113 -87 -105 -183 8 -95 66 -143 173 -143 70 0 114 22 146 72 27 45 23 154 -7 195 -45 60 -135 86 -207 59z m89 -84 c37 -24 44 -96 13 -136 -26 -32 -43 -33 -74 -1 -46 45 -22 145 35 145 8 0 20 -4 26 -8z"/> <path d="M1736 483 c-3 -4 -6 -26 -6 -50 0 -36 3 -43 20 -43 17 0 20 7 20 44 0 41 -17 65 -34 49z"/> <path d="M2047 596 c-69 -26 -67 -19 -67 -225 0 -132 4 -191 12 -199 7 -7 31 -12 55 -12 l43 0 0 58 0 57 57 -3 c48 -3 64 1 92 20 96 65 94 227 -2 287 -45 27 -139 36 -190 17z m127 -95 c20 -22 24 -88 7 -119 -9 -17 -21 -22 -51 -22 l-40 0 0 73 c0 41 3 77 7 80 13 14 60 6 77 -12z"/> <path d="M2120 435 c0 -39 3 -46 18 -43 13 2 17 13 17 43 0 30 -4 41 -17 43 -15 3 -18 -4 -18 -43z"/> <path d="M1272 465 c-7 -8 -24 -15 -37 -15 -21 0 -25 -5 -25 -30 0 -26 4 -30 27 -30 14 0 35 -7 45 -17 17 -15 18 -14 18 45 0 63 -5 72 -28 47z"/> <path d="M1527 459 c-10 -6 -25 -8 -33 -5 -10 4 -14 -3 -14 -29 0 -30 3 -35 23 -35 13 0 28 -5 35 -12 9 -9 12 0 12 40 0 29 -1 52 -2 52 -2 0 -11 -5 -21 -11z"/> </g> </svg> 