<?xml version="1.0" standalone="no"?>
<!DOCTYPE svg PUBLIC "-//W3C//DTD SVG 20010904//EN"
 "http://www.w3.org/TR/2001/REC-SVG-20010904/DTD/svg10.dtd">
<svg version="1.0" xmlns="http://www.w3.org/2000/svg"
 width="260.000000pt" height="97.000000pt" viewBox="0 0 260.000000 97.000000"
 preserveAspectRatio="xMidYMid meet">
<metadata>
Created by potrace 1.10, written by Peter Selinger 2001-2011
</metadata>
<g transform="translate(0.000000,97.000000) scale(0.100000,-0.100000)"
fill="#000000" stroke="none">
<path d="M307 692 c-15 -16 -17 -46 -17 -211 0 -190 0 -192 25 -216 51 -51
155 -24 155 41 0 25 2 24 46 -20 38 -38 52 -46 83 -46 42 0 91 31 91 57 0 14
4 13 23 -5 35 -33 108 -62 159 -62 56 0 125 25 138 51 14 25 12 83 -2 97 -10
10 -7 17 10 34 l22 22 0 -54 c0 -90 44 -138 133 -146 63 -6 96 9 118 53 l16
32 22 -30 c59 -80 203 -76 232 6 l12 33 26 -31 c53 -63 157 -84 236 -48 39 17
95 72 95 92 0 5 5 9 10 9 6 0 10 -35 10 -86 0 -81 1 -87 29 -115 31 -31 67
-37 104 -18 30 16 37 28 37 67 0 29 3 32 33 32 45 1 108 31 139 68 81 96 53
258 -53 312 -117 60 -288 14 -290 -79 0 -24 -1 -25 -12 -7 -46 73 -87 101
-160 111 -62 9 -121 -9 -166 -51 l-39 -34 -16 24 c-10 16 -27 26 -47 28 -26 2
-33 9 -43 38 -12 39 -45 60 -93 60 -46 0 -73 -30 -73 -80 0 -37 -2 -40 -19
-30 -11 5 -31 10 -45 10 -20 0 -26 5 -26 21 0 11 -13 34 -29 50 -34 33 -83 39
-119 13 -19 -13 -22 -24 -22 -86 l0 -71 -42 46 c-58 61 -120 79 -200 57 -81
-23 -138 -101 -138 -192 l-1 -53 -40 43 -41 43 51 54 c44 46 51 59 51 94 0 32
-6 44 -31 65 -48 40 -79 35 -132 -24 l-45 -50 -7 28 c-12 48 -43 72 -95 72
-33 0 -52 -6 -63 -18z m110 -20 c7 -4 13 -38 15 -80 l3 -73 65 80 c72 89 99
100 139 57 31 -33 22 -56 -47 -129 l-56 -58 67 -67 c37 -37 67 -75 67 -84 0
-21 -37 -48 -67 -48 -26 0 -84 49 -128 109 -16 22 -33 41 -36 41 -4 0 -6 -33
-5 -72 l1 -73 -40 -3 c-73 -5 -74 -1 -75 208 -1 102 -1 188 0 193 0 9 81 9 97
-1z m747 -18 c9 -8 16 -31 16 -50 0 -34 1 -34 44 -34 48 0 64 -19 51 -60 -5
-16 -15 -20 -51 -20 l-45 0 3 -62 3 -63 43 -3 c41 -3 42 -4 42 -37 0 -42 -20
-55 -84 -55 -52 0 -87 14 -103 40 -9 14 -19 287 -14 353 2 14 79 7 95 -9z
m257 6 c14 -8 19 -21 19 -50 l0 -40 51 0 50 0 -3 -37 c-3 -38 -3 -38 -51 -41
l-48 -3 3 -62 3 -62 42 -3 c36 -3 44 -7 49 -28 11 -42 -19 -64 -87 -64 -47 0
-63 5 -86 24 l-28 24 -3 162 c-2 89 -1 168 2 176 6 16 59 19 87 4z m-494 -70
c68 -30 109 -126 69 -159 -8 -6 -54 -17 -102 -23 -49 -6 -91 -13 -93 -14 -2
-2 2 -10 9 -18 18 -23 76 -30 122 -16 49 14 75 -2 65 -42 -9 -34 -46 -48 -124
-48 -116 0 -183 62 -183 169 0 62 18 101 62 134 55 41 111 47 175 17z m916 -8
c52 -30 71 -66 75 -140 2 -54 -1 -73 -17 -100 -32 -50 -76 -72 -146 -72 -107
0 -165 48 -173 143 -8 96 25 154 105 183 46 17 114 11 156 -14z m394 -3 c96
-60 98 -222 2 -287 -28 -19 -44 -23 -92 -20 l-57 3 0 -57 0 -58 -43 0 c-24 0
-48 5 -55 12 -8 8 -12 67 -12 199 0 206 -2 199 67 225 51 19 145 10 190 -17z
m-937 -161 c0 -59 -1 -60 -18 -45 -10 10 -31 17 -45 17 -23 0 -27 4 -27 30 0
25 4 30 25 30 13 0 30 7 37 15 23 25 28 16 28 -47z m250 0 c0 -40 -3 -49 -12
-40 -7 7 -22 12 -35 12 -20 0 -23 5 -23 35 0 26 4 33 14 29 8 -3 23 -1 33 5
10 6 19 11 21 11 1 0 2 -23 2 -52z"/>
<path d="M815 508 c-39 -31 -31 -39 33 -32 66 8 69 9 53 28 -19 23 -59 25 -86
4z"/>
<path d="M1724 512 c-40 -26 -45 -102 -9 -137 31 -32 48 -31 74 1 41 52 15
144 -39 144 -8 0 -20 -4 -26 -8z m46 -78 c0 -37 -3 -44 -20 -44 -17 0 -20 7
-20 43 0 48 5 58 26 50 9 -3 14 -21 14 -49z"/>
<path d="M2097 513 c-4 -3 -7 -39 -7 -80 l0 -73 40 0 c30 0 42 5 51 22 17 31
13 97 -7 119 -17 18 -64 26 -77 12z m58 -78 c0 -30 -4 -41 -17 -43 -15 -3 -18
4 -18 43 0 39 3 46 18 43 13 -2 17 -13 17 -43z"/>
</g>
</svg>
