<!-- <?xml version="1.0" encoding="UTF-8"?> -->
<svg id="Layer_1" data-name="Layer 1" xmlns="http://www.w3.org/2000/svg" viewBox="0 0 500 500">
  <path d="M144.7,311.99c-1.95,0-3.65-.72-5.08-2.15-1.44-1.43-2.15-3.07-2.15-4.91v-87.65c0-10.22-3.5-15.33-10.5-15.33-1.38,0-2.93,.32-4.65,.95-1.72,.63-3.22,1.98-4.48,4.05-1.26,2.07-1.89,5.4-1.89,9.99v69.05c0,6.89-1.44,12.23-4.31,16.02-2.87,3.79-6.23,6.4-10.07,7.84-3.85,1.43-7.26,2.15-10.25,2.15s-6.43-.72-10.33-2.15c-3.9-1.43-7.23-4.05-9.99-7.84-2.76-3.79-4.25-9.07-4.48-15.84v-69.4c0-4.48-.63-7.78-1.89-9.9-1.26-2.12-2.73-3.5-4.39-4.13-1.67-.63-3.13-.95-4.39-.95-1.03,0-2.41,.32-4.13,.95-1.72,.63-3.27,1.98-4.65,4.05s-2.07,5.28-2.07,9.64v88.51c0,1.84-.69,3.47-2.07,4.91s-3.04,2.15-4.99,2.15c-1.84,0-3.44-.69-4.82-2.07-1.38-1.38-2.07-2.98-2.07-4.82v-89.37c0-7.81,1.58-13.69,4.74-17.65,3.16-3.96,6.69-6.63,10.59-8.01,3.9-1.38,7.06-2.07,9.47-2.07,5.28,0,10.27,1.72,14.98,5.17,6.43,4.82,9.64,12.74,9.64,23.76v67.16c0,3.79,.63,6.66,1.89,8.61,2.07,3.56,5.05,5.34,8.95,5.34,1.38,0,2.87-.4,4.48-1.21,4.25-1.95,6.37-6.26,6.37-12.92v-66.99c0-10.91,3.33-18.77,9.99-23.59,4.71-3.56,9.64-5.34,14.81-5.34s10.22,1.72,14.81,5.17c6.43,4.94,9.64,13.03,9.64,24.28v87.65c0,1.84-.66,3.44-1.98,4.82-1.32,1.38-2.9,2.07-4.74,2.07Z"/>
  <path d="M201.35,311.99c-9.99,0-18.51-3.56-25.57-10.68-7.06-7.12-10.59-15.67-10.59-25.66s3.53-18.34,10.59-25.4,15.64-10.59,25.74-10.59,18.34,3.53,25.4,10.59c7.06,7.06,10.59,15.58,10.59,25.57,0,1.84-.66,3.44-1.98,4.82-1.32,1.38-2.96,2.07-4.91,2.07h-17.05c-1.95,0-3.62-.69-4.99-2.07s-2.07-3.04-2.07-4.99c0-1.84,.69-3.41,2.07-4.74,1.38-1.32,2.98-1.98,4.82-1.98h8.09c.57,0,.86-.23,.86-.69-1.38-4.25-4.36-7.86-8.95-10.85-4.02-2.64-8.21-3.96-12.57-3.96-6.2,.34-11.39,2.64-15.58,6.89-4.19,4.25-6.29,9.41-6.29,15.5s2.21,11.48,6.63,15.84c4.42,4.36,9.67,6.54,15.76,6.54,1.95,0,3.59,.66,4.91,1.98,1.32,1.32,1.98,2.96,1.98,4.91,0,1.84-.66,3.44-1.98,4.82-1.32,1.38-2.96,2.07-4.91,2.07Z"/>
  <path d="M317.07,311.99c-1.84,0-3.44-.69-4.82-2.07-1.38-1.38-2.07-2.98-2.07-4.82v-29.1c0-6.2-2.21-11.51-6.63-15.93-4.42-4.42-9.73-6.63-15.93-6.63s-11.51,2.21-15.93,6.63-6.63,9.73-6.63,15.93v29.1c0,1.84-.66,3.44-1.98,4.82-1.32,1.38-2.96,2.07-4.91,2.07-1.84,0-3.44-.69-4.82-2.07-1.38-1.38-2.07-2.98-2.07-4.82v-29.1c0-9.99,3.56-18.54,10.68-25.66,7.12-7.12,15.67-10.68,25.66-10.68s18.54,3.56,25.66,10.68c7.12,7.12,10.68,15.67,10.68,25.66v29.1c0,1.84-.66,3.44-1.98,4.82-1.32,1.38-2.96,2.07-4.91,2.07Z"/>
  <path d="M373.56,311.99c-10.22-.34-18.8-3.99-25.74-10.94-6.95-6.95-10.42-15.41-10.42-25.4v-18.77c0-1.03-.58-1.61-1.72-1.72h-4.99c-1.84,0-3.47-.69-4.91-2.07-1.44-1.38-2.15-3.04-2.15-4.99s.72-3.56,2.15-4.82c1.43-1.26,3.07-1.89,4.91-1.89h4.99c1.03,0,1.61-.57,1.72-1.72v-13.78c0-1.95,.69-3.62,2.07-4.99s3.04-2.07,4.99-2.07,3.56,.66,4.82,1.98c1.26,1.32,1.89,2.96,1.89,4.91v13.95c0,1.03,.57,1.61,1.72,1.72h15.5c1.95,0,3.62,.66,4.99,1.98,1.38,1.32,2.07,2.96,2.07,4.91s-.66,3.59-1.98,4.91c-1.32,1.32-2.96,1.98-4.91,1.98h-15.67c-1.03,0-1.61,.58-1.72,1.72v18.77c0,6.2,2.21,11.51,6.63,15.93,4.42,4.42,9.73,6.63,15.93,6.63,1.95,0,3.59,.66,4.91,1.98,1.32,1.32,1.98,2.96,1.98,4.91s-.69,3.59-2.07,4.91-3.04,1.98-4.99,1.98Z"/>
  <path d="M453.29,311.99c-1.84,0-3.44-.69-4.82-2.07s-2.07-2.98-2.07-4.82v-29.45c0-6.2-2.18-11.48-6.54-15.84-4.36-4.36-9.64-6.54-15.84-6.54s-11.48,2.18-15.84,6.54-6.54,9.64-6.54,15.84,2.18,11.51,6.54,15.93c4.36,4.42,9.64,6.63,15.84,6.63,1.95,0,3.59,.66,4.91,1.98,1.32,1.32,1.98,2.96,1.98,4.91,0,1.84-.66,3.44-1.98,4.82-1.32,1.38-2.96,2.07-4.91,2.07-9.99,0-18.51-3.56-25.57-10.68-7.06-7.12-10.59-15.67-10.59-25.66s3.53-18.54,10.59-25.66c7.06-7.12,15.58-10.68,25.57-10.68s18.51,3.56,25.57,10.68c7.06,7.12,10.59,15.67,10.59,25.66v29.45c0,1.84-.66,3.44-1.98,4.82-1.32,1.38-2.96,2.07-4.91,2.07Z"/>
  <path d="M481.87,311.99c-2.18,0-4.05-.8-5.6-2.41-1.55-1.61-2.32-3.5-2.32-5.68,0-2.3,.78-4.22,2.32-5.77,1.55-1.55,3.41-2.32,5.6-2.32,2.3,0,4.22,.78,5.77,2.32,1.55,1.55,2.32,3.47,2.32,5.77s-.78,4.08-2.32,5.68-3.47,2.41-5.77,2.41Z"/>
</svg>